<svg width="32" height="32" viewBox="0 0 32 32" fill="none" xmlns="http://www.w3.org/2000/svg">
<g clip-path="url(#clip0_238_74)">
<path d="M25.205 23.3929L24.645 22.8233L24.317 23.1433L24.429 23.5865L25.205 23.3929ZM26.2354 27.5177L26.0418 28.2937C26.1757 28.3271 26.316 28.3252 26.449 28.2883C26.582 28.2514 26.7032 28.1807 26.8008 28.0831C26.8984 27.9855 26.969 27.8643 27.006 27.7313C27.0429 27.5983 27.0447 27.458 27.0114 27.3241L26.2354 27.5177ZM19.8354 25.9177L19.269 25.3513L18.2706 26.3513L19.6418 26.6937L19.8354 25.9177ZM19.8754 25.8777L20.4402 26.4441C20.5569 26.3278 20.6349 26.1783 20.6635 26.016C20.692 25.8537 20.6698 25.6865 20.5997 25.5374C20.5297 25.3882 20.4153 25.2643 20.2722 25.1826C20.1291 25.1009 19.9642 25.0654 19.8002 25.0809L19.8754 25.8777ZM15.8354 4.31771V8.31771H17.4354V4.31771H15.8354ZM19.0354 7.51771H14.2354V9.11771H19.0354V7.51771ZM28.6354 17.1177C28.6354 14.5716 27.624 12.1298 25.8236 10.3295C24.0233 8.52913 21.5815 7.51771 19.0354 7.51771V9.11771C20.086 9.11771 21.1262 9.32463 22.0968 9.72667C23.0674 10.1287 23.9494 10.718 24.6922 11.4609C25.4351 12.2037 26.0244 13.0856 26.4264 14.0562C26.8285 15.0268 27.0354 16.0671 27.0354 17.1177H28.6354ZM25.765 23.9641C26.6754 23.0714 27.3983 22.0057 27.8912 20.8297C28.3841 19.6538 28.6371 18.3928 28.6354 17.1177H27.0354C27.0372 18.1804 26.8265 19.2311 26.4157 20.2112C26.0049 21.1913 25.4039 22.0794 24.645 22.8233L25.765 23.9641ZM27.013 27.3241L25.9794 23.1977L24.4274 23.5849L25.4578 27.7097L27.013 27.3241ZM19.6418 26.6937L26.0418 28.2937L26.429 26.7417L20.029 25.1417L19.6418 26.6937ZM19.309 25.3129L19.269 25.3513L20.4018 26.4825L20.4402 26.4441L19.309 25.3129ZM19.0354 26.7177C19.3442 26.7177 19.6498 26.7017 19.9506 26.6745L19.8002 25.0809C19.546 25.1052 19.2907 25.1175 19.0354 25.1177V26.7177ZM14.2354 26.7177H19.0354V25.1177H14.2354V26.7177ZM4.63538 17.1177C4.63538 19.6638 5.6468 22.1056 7.44715 23.9059C9.2475 25.7063 11.6893 26.7177 14.2354 26.7177V25.1177C13.1848 25.1177 12.1445 24.9108 11.1739 24.5087C10.2033 24.1067 9.32139 23.5174 8.57852 22.7746C7.07823 21.2743 6.23538 19.2394 6.23538 17.1177H4.63538ZM14.2354 7.51771C11.6893 7.51771 9.2475 8.52913 7.44715 10.3295C5.6468 12.1298 4.63538 14.5716 4.63538 17.1177H6.23538C6.23538 14.996 7.07823 12.9611 8.57852 11.4609C10.0788 9.96056 12.1136 9.11771 14.2354 9.11771V7.51771ZM16.6354 17.1177C15.9989 17.1177 15.3884 16.8649 14.9383 16.4148C14.4882 15.9647 14.2354 15.3542 14.2354 14.7177H12.6354C12.6354 15.7786 13.0568 16.796 13.8069 17.5461C14.5571 18.2963 15.5745 18.7177 16.6354 18.7177V17.1177ZM19.0354 14.7177C19.0354 15.3542 18.7825 15.9647 18.3324 16.4148C17.8823 16.8649 17.2719 17.1177 16.6354 17.1177V18.7177C17.6962 18.7177 18.7137 18.2963 19.4638 17.5461C20.2139 16.796 20.6354 15.7786 20.6354 14.7177H19.0354ZM16.6354 12.3177C17.2719 12.3177 17.8823 12.5706 18.3324 13.0207C18.7825 13.4707 19.0354 14.0812 19.0354 14.7177H20.6354C20.6354 13.6568 20.2139 12.6394 19.4638 11.8893C18.7137 11.1391 17.6962 10.7177 16.6354 10.7177V12.3177ZM16.6354 10.7177C15.5745 10.7177 14.5571 11.1391 13.8069 11.8893C13.0568 12.6394 12.6354 13.6568 12.6354 14.7177H14.2354C14.2354 14.0812 14.4882 13.4707 14.9383 13.0207C15.3884 12.5706 15.9989 12.3177 16.6354 12.3177V10.7177ZM16.6354 23.5177C18.3378 23.5177 19.9026 22.9257 21.1362 21.9385L20.1346 20.6905C19.1746 21.4585 17.9602 21.9177 16.6354 21.9177V23.5177ZM12.1346 21.9385C13.3666 22.9257 14.9346 23.5177 16.6354 23.5177V21.9177C15.3631 21.9201 14.1283 21.487 13.1362 20.6905L12.1346 21.9385Z" fill="white"/>
</g>
<defs>
<clipPath id="clip0_238_74">
<rect width="24" height="24" fill="white" transform="translate(4.63538 4.31771)"/>
</clipPath>
</defs>
</svg>
