<svg width="32" height="32" viewBox="0 0 32 32" fill="none" xmlns="http://www.w3.org/2000/svg">
<path fill-rule="evenodd" clip-rule="evenodd" d="M13.9619 4H14.026C14.254 4 14.4725 4.09054 14.6337 4.25171C14.7949 4.41287 14.8854 4.63145 14.8854 4.85937C14.8854 5.0873 14.7949 5.30588 14.6337 5.46704C14.4725 5.62821 14.254 5.71875 14.026 5.71875C11.8409 5.71875 10.2895 5.72104 9.11042 5.87917C7.95885 6.03385 7.29427 6.3249 6.80958 6.80958C6.3249 7.29427 6.03385 7.95885 5.87917 9.11156C5.72104 10.2895 5.71875 11.8409 5.71875 14.026C5.71875 14.254 5.62821 14.4725 5.46704 14.6337C5.30588 14.7949 5.0873 14.8854 4.85937 14.8854C4.63145 14.8854 4.41287 14.7949 4.25171 14.6337C4.09054 14.4725 4 14.254 4 14.026V13.9619C4 11.8558 4 10.1875 4.17531 8.8824C4.35635 7.53948 4.73677 6.45208 5.59385 5.59385C6.45208 4.73677 7.53948 4.35635 8.8824 4.17531C10.1886 4 11.8558 4 13.9619 4ZM23.5239 5.87917C22.3471 5.72104 20.7945 5.71875 18.6094 5.71875C18.3815 5.71875 18.1629 5.62821 18.0017 5.46704C17.8405 5.30588 17.75 5.0873 17.75 4.85937C17.75 4.63145 17.8405 4.41287 18.0017 4.25171C18.1629 4.09054 18.3815 4 18.6094 4H18.6735C20.7796 4 22.4479 4 23.753 4.17531C25.0959 4.35635 26.1833 4.73677 27.0416 5.59385C27.8986 6.45208 28.2791 7.53948 28.4601 8.8824C28.6354 10.1886 28.6354 11.8558 28.6354 13.9619V14.026C28.6354 14.254 28.5449 14.4725 28.3837 14.6337C28.2225 14.7949 28.004 14.8854 27.776 14.8854C27.5481 14.8854 27.3295 14.7949 27.1684 14.6337C27.0072 14.4725 26.9167 14.254 26.9167 14.026C26.9167 11.8409 26.9144 10.2895 26.7562 9.11042C26.6016 7.95885 26.3105 7.29427 25.8258 6.80958C25.3411 6.3249 24.6766 6.03385 23.5239 5.87917ZM4.85937 17.75C5.0873 17.75 5.30588 17.8405 5.46704 18.0017C5.62821 18.1629 5.71875 18.3815 5.71875 18.6094C5.71875 20.7945 5.72104 22.3471 5.87917 23.525C6.03385 24.6766 6.3249 25.3411 6.80958 25.8258C7.29427 26.3105 7.95885 26.6016 9.11156 26.7562C10.2895 26.9144 11.8409 26.9167 14.026 26.9167C14.254 26.9167 14.4725 27.0072 14.6337 27.1684C14.7949 27.3295 14.8854 27.5481 14.8854 27.776C14.8854 28.004 14.7949 28.2225 14.6337 28.3837C14.4725 28.5449 14.254 28.6354 14.026 28.6354H13.9619C11.8558 28.6354 10.1875 28.6354 8.8824 28.4601C7.53948 28.2791 6.45208 27.8986 5.59385 27.0416C4.73677 26.1833 4.35635 25.0959 4.17531 23.753C4 22.4468 4 20.7796 4 18.6735V18.6094C4 18.3815 4.09054 18.1629 4.25171 18.0017C4.41287 17.8405 4.63145 17.75 4.85937 17.75ZM27.776 17.75C28.004 17.75 28.2225 17.8405 28.3837 18.0017C28.5449 18.1629 28.6354 18.3815 28.6354 18.6094V18.6735C28.6354 20.7796 28.6354 22.4479 28.4601 23.753C28.2791 25.0959 27.8986 26.1833 27.0416 27.0416C26.1833 27.8986 25.0959 28.2791 23.753 28.4601C22.4468 28.6354 20.7796 28.6354 18.6735 28.6354H18.6094C18.3815 28.6354 18.1629 28.5449 18.0017 28.3837C17.8405 28.2225 17.75 28.004 17.75 27.776C17.75 27.5481 17.8405 27.3295 18.0017 27.1684C18.1629 27.0072 18.3815 26.9167 18.6094 26.9167C20.7945 26.9167 22.3471 26.9144 23.525 26.7562C24.6766 26.6016 25.3411 26.3105 25.8258 25.8258C26.3105 25.3411 26.6016 24.6766 26.7562 23.5239C26.9144 22.3471 26.9167 20.7945 26.9167 18.6094C26.9167 18.3815 27.0072 18.1629 27.1684 18.0017C27.3295 17.8405 27.5481 17.75 27.776 17.75ZM12.1893 20.3889C12.2566 20.2981 12.3411 20.2216 12.438 20.1635C12.5349 20.1055 12.6423 20.0671 12.754 20.0506C12.8658 20.0341 12.9797 20.0398 13.0892 20.0674C13.1987 20.095 13.3018 20.1438 13.3924 20.2112C14.2266 20.83 15.2337 21.1875 16.3177 21.1875C17.4017 21.1875 18.4089 20.8289 19.243 20.2112C19.3334 20.1409 19.4369 20.0894 19.5474 20.0596C19.658 20.0299 19.7734 20.0225 19.8868 20.038C20.0002 20.0534 20.1094 20.0914 20.208 20.1496C20.3066 20.2079 20.3925 20.2852 20.4608 20.3771C20.529 20.4691 20.5782 20.5737 20.6055 20.6849C20.6327 20.7961 20.6375 20.9116 20.6195 21.0247C20.6014 21.1377 20.561 21.2461 20.5006 21.3433C20.4401 21.4405 20.3608 21.5247 20.2674 21.5908C19.127 22.4435 17.7416 22.9049 16.3177 22.9062C14.8938 22.9049 13.5084 22.4435 12.368 21.5908C12.1849 21.4551 12.0633 21.2523 12.0297 21.0269C11.9962 20.8015 12.0536 20.572 12.1893 20.3889Z" fill="white"/>
<path d="M20.7569 14.653C20.7569 15.5719 20.2597 16.3177 19.6471 16.3177C19.0345 16.3177 18.5373 15.5719 18.5373 14.653C18.5373 13.7341 19.0345 12.9883 19.6471 12.9883C20.2597 12.9883 20.7569 13.7341 20.7569 14.653ZM14.098 14.653C14.098 15.5719 13.6008 16.3177 12.9882 16.3177C12.3756 16.3177 11.8784 15.5719 11.8784 14.653C11.8784 13.7341 12.3756 12.9883 12.9882 12.9883C13.6008 12.9883 14.098 13.7341 14.098 14.653Z" fill="white"/>
</svg>
