<svg width="160" height="160" viewBox="0 0 160 160" fill="none" xmlns="http://www.w3.org/2000/svg">
<circle cx="80" cy="80" r="80" fill="#D9D9D9" fill-opacity="0.32"/>
<path d="M112.312 47.6875H47.6875C46.1294 47.6875 44.635 48.3065 43.5332 49.4082C42.4315 50.51 41.8125 52.0044 41.8125 53.5625V106.438C41.8125 107.996 42.4315 109.49 43.5332 110.592C44.635 111.694 46.1294 112.312 47.6875 112.312H71.1875C71.8041 112.313 72.405 112.119 72.9052 111.758C73.4054 111.398 73.7795 110.889 73.9745 110.304L79.4198 93.9715L92.8516 88.6032C93.2205 88.4542 93.5557 88.2324 93.837 87.951C94.1184 87.6696 94.3402 87.3345 94.4892 86.9655L99.8575 73.5448L116.19 68.0995C116.773 67.9026 117.279 67.5277 117.638 67.0277C117.996 66.5276 118.188 65.9277 118.188 65.3125V53.5625C118.188 52.0044 117.569 50.51 116.467 49.4082C115.365 48.3065 113.871 47.6875 112.312 47.6875ZM74.2755 90.821L69.0688 106.438H47.6875V96.1562L66.7812 77.0625L77.9511 88.2323L75.9609 89.0218C75.5664 89.1817 75.2114 89.4254 74.9204 89.736C74.6293 90.0467 74.4093 90.4169 74.2755 90.821ZM112.312 63.1938L96.696 68.4005C96.2908 68.5355 95.9199 68.7572 95.6092 69.0502C95.2985 69.3432 95.0554 69.7004 94.8968 70.097L89.4918 83.6168L83.8848 85.875L70.9341 72.9243C69.8325 71.8234 68.3387 71.2049 66.7812 71.2049C65.2238 71.2049 63.73 71.8234 62.6284 72.9243L47.6875 87.8468V53.5625H112.312V63.1938ZM116.968 75.311C116.591 75.0387 116.154 74.86 115.693 74.7898C115.233 74.7196 114.763 74.7598 114.321 74.9071L105.582 77.8226C105.177 77.9572 104.806 78.1783 104.496 78.4706C104.185 78.7629 103.942 79.1194 103.783 79.5153L98.5283 92.6496L85.394 97.9041C84.9981 98.0631 84.6416 98.3064 84.3493 98.6171C84.057 98.9278 83.8358 99.2985 83.7013 99.7033L80.7858 108.442C80.6379 108.884 80.5971 109.355 80.667 109.815C80.7369 110.276 80.9153 110.713 81.1875 111.092C81.4598 111.47 81.8181 111.778 82.2328 111.99C82.6475 112.202 83.1068 112.313 83.5727 112.312H112.312C113.871 112.312 115.365 111.694 116.467 110.592C117.569 109.49 118.188 107.996 118.188 106.438V77.6977C118.188 77.2324 118.077 76.7736 117.865 76.3593C117.653 75.945 117.346 75.5869 116.968 75.3147V75.311ZM112.312 106.438H87.6485L88.8419 102.857L101.881 97.6434C102.25 97.4943 102.585 97.2725 102.866 96.9912C103.148 96.7098 103.369 96.3746 103.518 96.0057L108.732 82.9669L112.312 81.7735V106.438Z" fill="#989292"/>
</svg>
