<svg width="153" height="153" viewBox="0 0 153 153" fill="none" xmlns="http://www.w3.org/2000/svg">
<rect width="153" height="153" rx="75" fill="black" fill-opacity="0.1"/>
<path d="M103.529 70.4142C83.5153 67.665 66.257 82.5253 67.4166 102.236M59.8472 64.3889C59.8472 65.9949 60.4852 67.5352 61.6208 68.6708C62.7564 69.8065 64.2967 70.4445 65.9027 70.4445C67.5088 70.4445 69.049 69.8065 70.1846 68.6708C71.3203 67.5352 71.9583 65.9949 71.9583 64.3889C71.9583 62.7829 71.3203 61.2426 70.1846 60.107C69.049 58.9713 67.5088 58.3333 65.9027 58.3333C64.2967 58.3333 62.7564 58.9713 61.6208 60.107C60.4852 61.2426 59.8472 62.7829 59.8472 64.3889Z" stroke="white" stroke-width="4.54167" stroke-linecap="round" stroke-linejoin="round"/>
<path d="M49.25 79.7276C57.6672 78.5619 65.2215 82.6282 69.306 89.1137" stroke="white" stroke-width="4.54167" stroke-linecap="round" stroke-linejoin="round"/>
<path d="M49.25 68.6278C49.25 61.8456 49.25 58.4544 50.5701 55.8627C51.7312 53.5839 53.5839 51.7312 55.8627 50.5701C58.4544 49.25 61.8456 49.25 68.6278 49.25H84.3722C91.1544 49.25 94.5456 49.25 97.1373 50.5701C99.4161 51.7312 101.269 53.5839 102.43 55.8627C103.75 58.4544 103.75 61.8456 103.75 68.6278V84.3722C103.75 91.1544 103.75 94.5456 102.43 97.1373C101.269 99.4161 99.4161 101.269 97.1373 102.43C94.5456 103.75 91.1544 103.75 84.3722 103.75H68.6278C61.8456 103.75 58.4544 103.75 55.8627 102.43C53.5839 101.269 51.7312 99.4161 50.5701 97.1373C49.25 94.5456 49.25 91.1544 49.25 84.3722V68.6278Z" stroke="white" stroke-width="4.54167" stroke-linecap="round" stroke-linejoin="round"/>
</svg>
