<svg width="32" height="32" viewBox="0 0 32 32" fill="none" xmlns="http://www.w3.org/2000/svg">
<path d="M10.256 15.8628L12.136 16.4894C13.3786 16.9028 13.9986 17.1108 14.444 17.5561C14.8893 18.0014 15.0973 18.6228 15.5106 19.8628L16.1373 21.7428C17.1826 24.8814 17.7053 26.4494 18.6666 26.4494C19.6266 26.4494 20.1507 24.8814 21.196 21.7428L24.98 10.3934C25.716 8.18544 26.084 7.08144 25.5013 6.49878C24.9186 5.91611 23.8146 6.28411 21.608 7.01878L10.2546 10.8054C7.11998 11.8494 5.54932 12.3721 5.54932 13.3334C5.54932 14.2934 7.11865 14.8174 10.256 15.8628Z" fill="white"/>
<path d="M10.256 15.8628L12.136 16.4894C13.3786 16.9028 13.9986 17.1108 14.444 17.5561C14.8893 18.0014 15.0973 18.6228 15.5106 19.8628L16.1373 21.7428C17.1826 24.8814 17.7053 26.4494 18.6666 26.4494C19.6266 26.4494 20.1507 24.8814 21.196 21.7428L24.98 10.3934C25.716 8.18544 26.084 7.08144 25.5013 6.49878C24.9186 5.91611 23.8146 6.28411 21.608 7.01878L10.2546 10.8054C7.11998 11.8494 5.54932 12.3721 5.54932 13.3334C5.54932 14.2934 7.11865 14.8174 10.256 15.8628Z" fill="white"/>
<path d="M12.7013 18.4561L9.95198 17.5401C9.7596 17.476 9.55512 17.4566 9.35411 17.4834C9.1531 17.5102 8.96084 17.5825 8.79198 17.6948L7.33865 18.6628C7.16661 18.7774 7.03158 18.9395 6.94999 19.1295C6.8684 19.3194 6.84377 19.529 6.87908 19.7327C6.9144 19.9364 7.00814 20.1254 7.1489 20.2768C7.28967 20.4282 7.4714 20.5354 7.67198 20.5854L10.2787 21.2361C10.396 21.2654 10.5031 21.326 10.5886 21.4115C10.6741 21.497 10.7347 21.6041 10.764 21.7214L11.4146 24.3281C11.4647 24.5287 11.5719 24.7104 11.7233 24.8512C11.8747 24.992 12.0637 25.0857 12.2674 25.121C12.4711 25.1563 12.6807 25.1317 12.8706 25.0501C13.0606 24.9685 13.2227 24.8335 13.3373 24.6614L14.3053 23.2081C14.4176 23.0392 14.4899 22.847 14.5167 22.646C14.5435 22.445 14.5241 22.2405 14.46 22.0481L13.544 19.2988C13.4785 19.1026 13.3683 18.9243 13.222 18.7781C13.0758 18.6318 12.8975 18.5216 12.7013 18.4561Z" fill="white"/>
</svg>
